<svg height="480pt" viewBox="0 -12 480 480" width="480pt" xmlns="http://www.w3.org/2000/svg"><path d="m472 104h-32c-2.675781 0-5.171875 1.335938-6.65625 3.558594l-49.34375 74.042968v-69.601562c0-13.253906-10.746094-24-24-24h-8.441406c.265625-2.679688.441406-5.351562.441406-8 0-44.183594-35.816406-80-80-80s-80 35.816406-80 80c0 2.648438.175781 5.320312.441406 8h-16.992187c-4.164063-32.167969-31.730469-56.132812-64.160157-55.785156-32.433593.351562-59.476562 24.90625-62.945312 57.152344-9.726562 3.273437-16.292969 12.371093-16.34375 22.632812v49.761719l-19.871094 4.964843c-7.125 1.777344-12.12499975 8.179688-12.128906 15.519532v131.507812c.00390625 7.339844 5.003906 13.742188 12.128906 15.519532l19.871094 4.964843v49.761719c0 13.253906 10.746094 24 24 24h40v32c0 8.835938 7.164062 16 16 16h192c8.835938 0 16-7.164062 16-16v-32h40c13.253906 0 24-10.746094 24-24v-69.601562l49.34375 74.015624c1.480469 2.234376 3.976562 3.582032 6.65625 3.585938h32c4.417969 0 8-3.582031 8-8v-272c0-4.417969-3.582031-8-8-8zm-200-88c35.328125.039062 63.960938 28.671875 64 64-.023438 4.785156-.558594 9.554688-1.601562 14.222656-6.785157 29.027344-32.589844 49.613282-62.398438 49.777344-3.660156 0-7.3125-.320312-10.921875-.953125-25.378906-4.515625-45.632813-23.703125-51.519531-48.800781-1.023438-4.679688-1.546875-9.453125-1.558594-14.246094.039062-35.328125 28.671875-63.960938 64-64zm-160 32c26.507812 0 48 21.492188 48 48s-21.492188 48-48 48-48-21.492188-48-48c.027344-26.5 21.5-47.972656 48-48zm-96 265.753906v-131.515625l16-4v139.515625zm288 126.246094h-192v-32h192zm64-56c0 4.417969-3.582031 8-8 8h-304c-4.417969 0-8-3.582031-8-8v-272c0-1.433594.386719-2.839844 1.121094-4.070312 0 .167968.078125.316406.109375.484374.144531.746094.34375 1.464844.523437 2.203126.277344 1.214843.574219 2.398437.933594 3.628906.234375.800781.496094 1.546875.761719 2.3125.382812 1.113281.796875 2.21875 1.214843 3.304687.3125.800781.640626 1.519531.976563 2.273438.472656 1.054687.976563 2.09375 1.503906 3.121093.375.726563.757813 1.445313 1.160157 2.15625.574218 1.019532 1.191406 2.019532 1.824218 3 .421875.65625.800782 1.320313 1.277344 1.960938.714844 1.023438 1.464844 2.007812 2.234375 2.992188.429687.542968.847656 1.113281 1.296875 1.648437.984375 1.183594 2.03125 2.3125 3.101562 3.417969.273438.285156.527344.597656.800782.878906 1.367187 1.367188 2.808594 2.664062 4.296875 3.902344.421875.351562.871093.664062 1.304687 1.007812 1.09375.867188 2.199219 1.714844 3.34375 2.503906.605469.417969 1.230469.800782 1.855469 1.183594 1.023437.65625 2.046875 1.296875 3.113281 1.898438.695313.390625 1.40625.75 2.109375 1.113281 1.046875.535156 2.097657 1.046875 3.199219 1.527344.746094.335937 1.496094.648437 2.257812.949219 1.085938.441406 2.199219.839843 3.320313 1.21875.800781.253906 1.535156.519531 2.320313.742187 1.167968.351563 2.359374.640625 3.558593.921875.761719.175781 1.511719.367188 2.28125.519531 1.328125.253907 2.6875.4375 4 .613281.664063.089844 1.320313.210938 1.984375.273438 2.039063.191406 4.101563.3125 6.191406.3125 2.101563 0 4.203126-.109375 6.296876-.320312.695312-.0625 1.367187-.199219 2.0625-.289063 1.359374-.183594 2.726562-.359375 4.0625-.621094.800781-.160156 1.601562-.378906 2.402343-.570312 1.191407-.277344 2.398438-.558594 3.542969-.910157.800781-.25 1.601562-.546874 2.449219-.800781 1.085937-.375 2.175781-.753906 3.238281-1.191406.800781-.328125 1.601562-.695313 2.402344-1.066406 1.015625-.460938 2.023437-.933594 3.007812-1.453125.796875-.410156 1.597656-.847656 2.34375-1.296875.949219-.535157 1.882813-1.101563 2.808594-1.703125.75-.488282 1.484375-.992188 2.222656-1.503906.886719-.632813 1.757813-1.289063 2.617188-1.960938.695312-.550781 1.390625-1.105469 2.070312-1.6875.800782-.714844 1.601563-1.449219 2.398438-2.210938.640625-.597656 1.289062-1.207031 1.90625-1.839843.800781-.796875 1.503906-1.597657 2.238281-2.460938.570313-.648437 1.152344-1.289062 1.695313-1.96875.722656-.898437 1.394531-1.832031 2.074218-2.777343.480469-.664063.984375-1.304688 1.441406-1.992188.695313-1.054688 1.335938-2.152344 1.972657-3.246094.363281-.617187.753906-1.21875 1.097656-1.847656.855469-1.601562 1.648437-3.25 2.398437-4.921875.089844-.207031.195313-.40625.28125-.617187.753907-1.78125 1.425782-3.613282 2.007813-5.476563.214844-.679687.367187-1.386719.558594-2.074219.355469-1.261718.714843-2.519531.984375-3.816406.175781-.800781.289062-1.679688.433594-2.519531.144531-.839844.367187-1.871094.496093-2.832031h20.128907l.0625.183593c.320312 1 .703124 1.96875 1.046874 2.953125.410157 1.121094.800782 2.253906 1.234376 3.351563.390624.953125.839843 1.871093 1.261718 2.808593.488282 1.078126.960938 2.167969 1.496094 3.199219.457031.894531.960938 1.769531 1.449219 2.648438.574219 1.03125 1.152343 2.0625 1.769531 3.070312.519531.851563 1.085938 1.664063 1.636719 2.488281.648437.976563 1.304687 1.953126 2 2.898438.585937.800781 1.210937 1.597656 1.824219 2.351562.730468.910157 1.457031 1.816407 2.226562 2.695313.648438.742187 1.320312 1.464844 1.992188 2.183594.789062.847656 1.589843 1.679687 2.398437 2.496093.703125.6875 1.425781 1.351563 2.152344 2.015626.863281.785156 1.742187 1.546874 2.640625 2.289062.75.625 1.511718 1.230469 2.289062 1.832031.925782.710938 1.871094 1.390625 2.832032 2.0625.796874.5625 1.597656 1.113281 2.398437 1.601563.992187.640625 2 1.246094 3.015625 1.839844.839844.488281 1.671875.976562 2.527344 1.441406 1.050781.558594 2.121094 1.078125 3.199218 1.597656.875.417969 1.738282.839844 2.625 1.226562 1.113282.484376 2.25.917969 3.382813 1.351563.890625.34375 1.769531.695313 2.675781 1.007813 1.183594.398437 2.398438.742187 3.589844 1.09375.894531.257812 1.777344.546874 2.6875.800781 1.28125.320312 2.585938.566406 3.890625.800781.855469.175781 1.710937.375 2.582031.527344 1.464844.238281 2.953125.398437 4.449219.566406.734375.082031 1.453125.203125 2.199219.265625 2.238281.183594 4.503906.289063 6.792968.289063 2.285157 0 4.550782-.105469 6.789063-.289063.746094-.0625 1.464844-.183594 2.203125-.265625 1.496094-.167969 2.984375-.328125 4.445312-.566406.875-.144532 1.722657-.351563 2.578126-.527344 1.304687-.257812 2.613281-.511719 3.902343-.839844.898438-.226562 1.769531-.503906 2.65625-.761718 1.214844-.351563 2.402344-.703126 3.625-1.109376.886719-.304687 1.742188-.648437 2.617188-.976562 1.160156-.449219 2.328125-.898438 3.460937-1.394531.847656-.367188 1.679688-.796875 2.511719-1.175781 1.121094-.535157 2.226563-1.070313 3.320313-1.664063.800781-.429687 1.601562-.894531 2.402343-1.359375 1.070313-.625 2.136719-1.261719 3.199219-1.941406.75-.488282 1.488281-.992188 2.222656-1.503906 1.042969-.730469 2.058594-1.464844 3.058594-2.242188.695312-.535156 1.375-1.078125 2.054688-1.601562.992187-.796876 1.960937-1.664063 2.917968-2.535157.625-.566406 1.25-1.144531 1.859375-1.734375.949219-.929687 1.871094-1.878906 2.773438-2.847656.554687-.601562 1.113281-1.199219 1.65625-1.816406.898437-1.03125 1.761719-2.097656 2.609375-3.199219.488281-.617187.976562-1.226563 1.4375-1.855469.859375-1.144531 1.65625-2.328125 2.441406-3.53125.410156-.613281.800781-1.222656 1.214844-1.847656.800781-1.269531 1.523437-2.582031 2.242187-3.902344.328125-.609375.679688-1.199218 1-1.824218.71875-1.410157 1.375-2.863282 2.015625-4.328126.246094-.578124.527344-1.128906.761719-1.703124.652344-1.601563 1.230469-3.203126 1.789063-4.882813.160156-.496094.359374-.964844.519531-1.460937 0-.105469.074219-.195313.105469-.296876h11.664062c4.417969 0 8 3.582032 8 8zm96-8h-19.71875l-60.28125-90.398438v-75.203124l60.28125-90.398438h19.71875zm0 0"/><path d="m112 136c22.089844 0 40-17.910156 40-40s-17.910156-40-40-40-40 17.910156-40 40c.027344 22.082031 17.917969 39.972656 40 40zm0-64c13.253906 0 24 10.746094 24 24s-10.746094 24-24 24-24-10.746094-24-24 10.746094-24 24-24zm0 0"/><path d="m272 136c30.929688 0 56-25.070312 56-56s-25.070312-56-56-56-56 25.070312-56 56c.039062 30.910156 25.089844 55.960938 56 56zm0-96c22.089844 0 40 17.910156 40 40s-17.910156 40-40 40-40-17.910156-40-40c.027344-22.082031 17.917969-39.972656 40-40zm0 0"/></svg>